<svg version="1.1" id="Layer_1" xmlns="http://www.w3.org/2000/svg" xmlns:xlink="http://www.w3.org/1999/xlink" x="0px" y="0px"
	 width="100%" viewBox="0 0 512 512" enable-background="new 0 0 512 512" xml:space="preserve">
<path fill="#000000" opacity="1.000000" stroke="none" 
	d="
M287.000000,513.000000 
	C191.356552,513.000000 96.213104,513.000000 1.034826,513.000000 
	C1.034826,342.398193 1.034826,171.796371 1.034826,1.097280 
	C171.560135,1.097280 342.120331,1.097280 512.840271,1.097280 
	C512.840271,171.666550 512.840271,342.333252 512.840271,513.000000 
	C437.796356,513.000000 362.648163,513.000000 287.000000,513.000000 
M321.220245,283.500122 
	C321.220245,241.780914 321.220245,200.061691 321.220245,158.205292 
	C311.188507,158.205292 301.785248,158.205292 292.319458,158.205292 
	C292.319458,223.556152 292.319458,288.701202 292.319458,353.685852 
	C302.042633,353.685852 311.443848,353.685852 321.220245,353.685852 
	C321.220245,330.415253 321.220245,307.457703 321.220245,283.500122 
M176.999969,204.500000 
	C176.999969,254.579330 176.999969,304.658661 176.999969,354.791779 
	C186.955719,354.791779 196.380661,354.791779 205.998352,354.791779 
	C205.998352,289.537872 205.998352,224.492142 205.998352,159.291626 
	C196.295593,159.291626 186.751572,159.291626 176.999985,159.291626 
	C176.999985,174.221542 176.999985,188.860779 176.999969,204.500000 
z"/>
<path fill="#FFFFFF" opacity="1.000000" stroke="none" 
	d="
M321.220245,284.000153 
	C321.220245,307.457703 321.220245,330.415253 321.220245,353.685852 
	C311.443848,353.685852 302.042633,353.685852 292.319458,353.685852 
	C292.319458,288.701202 292.319458,223.556152 292.319458,158.205292 
	C301.785248,158.205292 311.188507,158.205292 321.220245,158.205292 
	C321.220245,200.061691 321.220245,241.780914 321.220245,284.000153 
z"/>
<path fill="#FFFFFF" opacity="1.000000" stroke="none" 
	d="
M176.999969,204.000000 
	C176.999985,188.860779 176.999985,174.221542 176.999985,159.291626 
	C186.751572,159.291626 196.295593,159.291626 205.998352,159.291626 
	C205.998352,224.492142 205.998352,289.537872 205.998352,354.791779 
	C196.380661,354.791779 186.955719,354.791779 176.999969,354.791779 
	C176.999969,304.658661 176.999969,254.579330 176.999969,204.000000 
z"/>
</svg>