<svg version="1.1" id="Layer_1" xmlns="http://www.w3.org/2000/svg" xmlns:xlink="http://www.w3.org/1999/xlink" x="0px" y="0px"
	 width="100%" viewBox="0 0 1200 1200" enable-background="new 0 0 1200 1200" xml:space="preserve">
<path fill="#000000" opacity="1.000000" stroke="none" 
	d="
M699.000000,1201.000000 
	C466.000000,1201.000000 233.500000,1201.000000 1.000000,1201.000000 
	C1.000000,801.000000 1.000000,401.000000 1.000000,1.000000 
	C401.000000,1.000000 801.000000,1.000000 1201.000000,1.000000 
	C1201.000000,401.000000 1201.000000,801.000000 1201.000000,1201.000000 
	C1033.833374,1201.000000 866.666687,1201.000000 699.000000,1201.000000 
M584.870300,458.648468 
	C514.442993,417.680267 444.015625,376.712067 373.131531,335.478180 
	C373.131531,513.088440 373.131531,689.928894 373.131531,867.501953 
	C525.807434,778.737244 678.003113,690.251709 830.652039,601.502625 
	C748.572876,553.777771 667.050476,506.376648 584.870300,458.648468 
z"/>
<path fill="#FFFFFF" opacity="1.000000" stroke="none" 
	d="
M585.199219,458.812012 
	C667.050476,506.376648 748.572876,553.777771 830.652039,601.502625 
	C678.003113,690.251709 525.807434,778.737244 373.131531,867.501953 
	C373.131531,689.928894 373.131531,513.088440 373.131531,335.478180 
	C444.015625,376.712067 514.442993,417.680267 585.199219,458.812012 
z"/>
</svg>